<svg xmlns="http://www.w3.org/2000/svg" width="400" height="200" viewBox="0 0 400 200" style="font-family: &quot;Helvetica Neue&quot;, Helvetica, Arial, sans-serif;"><rect width="400" height="200" fill="#FFFFFF"></rect><g transform="translate(130,20)"><line x1="34.54545454545455" y1="0" x2="34.54545454545455" y2="155" stroke="#E0E0E0" stroke-width="0.5"></line><line x1="69.0909090909091" y1="0" x2="69.0909090909091" y2="155" stroke="#E0E0E0" stroke-width="0.5"></line><line x1="103.63636363636363" y1="0" x2="103.63636363636363" y2="155" stroke="#E0E0E0" stroke-width="0.5"></line><line x1="138.1818181818182" y1="0" x2="138.1818181818182" y2="155" stroke="#E0E0E0" stroke-width="0.5"></line><line x1="172.72727272727272" y1="0" x2="172.72727272727272" y2="155" stroke="#E0E0E0" stroke-width="0.5"></line><rect x="0" y="8.773584905660371" width="34.54545454545455" height="20.471698113207548" fill="#59A14F" rx="2" opacity="0.8"></rect><text x="17.272727272727273" y="20.009433962264147" text-anchor="middle" dominant-baseline="middle" font-size="7.5" fill="#fff" font-weight="700">2</text><text x="42.54545454545455" y="20.009433962264147" dominant-baseline="middle" font-size="9" fill="#333333" font-weight="600">P = 1.00</text><rect x="0" y="38.018867924528294" width="17.272727272727273" height="20.471698113207548" fill="#59A14F" rx="2" opacity="0.8"></rect><text x="8.636363636363637" y="49.25471698113207" text-anchor="middle" dominant-baseline="middle" font-size="7.5" fill="#fff" font-weight="700">1</text><text x="25.272727272727273" y="49.25471698113207" dominant-baseline="middle" font-size="9" fill="#333333" font-weight="600">P = 1.00</text><rect x="0" y="67.26415094339623" width="51.81818181818181" height="20.471698113207548" fill="#59A14F" rx="2" opacity="0.8"></rect><text x="25.909090909090907" y="78.5" text-anchor="middle" dominant-baseline="middle" font-size="7.5" fill="#fff" font-weight="700">3</text><rect x="51.81818181818181" y="67.26415094339623" width="17.272727272727273" height="20.471698113207548" fill="#E15759" rx="2" opacity="0.8"></rect><text x="60.45454545454545" y="78.5" text-anchor="middle" dominant-baseline="middle" font-size="7.5" fill="#fff" font-weight="700">1</text><rect x="69.0909090909091" y="67.26415094339623" width="103.63636363636363" height="20.471698113207548" fill="#F28E2B" rx="2" opacity="0.8"></rect><text x="120.9090909090909" y="78.5" text-anchor="middle" dominant-baseline="middle" font-size="7.5" fill="#fff" font-weight="700">6</text><text x="180.72727272727272" y="78.5" dominant-baseline="middle" font-size="9" fill="#333333" font-weight="600">P = 0.75</text><rect x="0" y="96.50943396226415" width="17.272727272727273" height="20.471698113207548" fill="#59A14F" rx="2" opacity="0.8"></rect><text x="8.636363636363637" y="107.74528301886792" text-anchor="middle" dominant-baseline="middle" font-size="7.5" fill="#fff" font-weight="700">1</text><text x="25.272727272727273" y="107.74528301886792" dominant-baseline="middle" font-size="9" fill="#333333" font-weight="600">P = 1.00</text><rect x="0" y="125.75471698113208" width="17.272727272727273" height="20.471698113207548" fill="#59A14F" rx="2" opacity="0.8"></rect><text x="8.636363636363637" y="136.99056603773585" text-anchor="middle" dominant-baseline="middle" font-size="7.5" fill="#fff" font-weight="700">1</text><text x="25.272727272727273" y="136.99056603773585" dominant-baseline="middle" font-size="9" fill="#333333" font-weight="600">P = 1.00</text><g fill="none" font-size="10" font-family="sans-serif" text-anchor="end"><path class="domain" stroke="#333333" d="M0.5,0.5V155.5"></path><g class="tick" opacity="1" transform="translate(0,19.009433962264147)"><line stroke="currentColor" x2="0"></line><text fill="#333333" x="-3" dy="0.32em" font-size="9">Dead Ends</text></g><g class="tick" opacity="1" transform="translate(0,48.25471698113207)"><line stroke="currentColor" x2="0"></line><text fill="#333333" x="-3" dy="0.32em" font-size="9">Unreachable Exit</text></g><g class="tick" opacity="1" transform="translate(0,77.5)"><line stroke="currentColor" x2="0"></line><text fill="#333333" x="-3" dy="0.32em" font-size="9">Missing Human Gate</text></g><g class="tick" opacity="1" transform="translate(0,106.74528301886792)"><line stroke="currentColor" x2="0"></line><text fill="#333333" x="-3" dy="0.32em" font-size="9">Router Shape</text></g><g class="tick" opacity="1" transform="translate(0,135.99056603773585)"><line stroke="currentColor" x2="0"></line><text fill="#333333" x="-3" dy="0.32em" font-size="9">Missing Tool</text></g></g><g transform="translate(0,155)" fill="none" font-size="10" font-family="sans-serif" text-anchor="middle"><path class="domain" stroke="#333333" d="M0.5,-3V0.5H190.5V-3"></path><g class="tick" opacity="1" transform="translate(0.5,0)"><line stroke="currentColor" y2="-3"></line><text fill="#333333" y="3" dy="0.71em" font-size="9">0</text></g><g class="tick" opacity="1" transform="translate(35.04545454545455,0)"><line stroke="currentColor" y2="-3"></line><text fill="#333333" y="3" dy="0.71em" font-size="9">2</text></g><g class="tick" opacity="1" transform="translate(69.5909090909091,0)"><line stroke="currentColor" y2="-3"></line><text fill="#333333" y="3" dy="0.71em" font-size="9">4</text></g><g class="tick" opacity="1" transform="translate(104.13636363636363,0)"><line stroke="currentColor" y2="-3"></line><text fill="#333333" y="3" dy="0.71em" font-size="9">6</text></g><g class="tick" opacity="1" transform="translate(138.6818181818182,0)"><line stroke="currentColor" y2="-3"></line><text fill="#333333" y="3" dy="0.71em" font-size="9">8</text></g><g class="tick" opacity="1" transform="translate(173.22727272727272,0)"><line stroke="currentColor" y2="-3"></line><text fill="#333333" y="3" dy="0.71em" font-size="9">10</text></g></g><text x="95" y="177" text-anchor="middle" font-size="9" fill="#333333">Findings</text><g transform="translate(200, 0)"><rect x="0" y="0" width="10" height="10" rx="2" fill="#59A14F" opacity="0.8"></rect><text x="14" y="9" font-size="7.5" fill="#333333">TP</text><rect x="0" y="16" width="10" height="10" rx="2" fill="#E15759" opacity="0.8"></rect><text x="14" y="25" font-size="7.5" fill="#333333">FP</text><rect x="0" y="32" width="10" height="10" rx="2" fill="#F28E2B" opacity="0.8"></rect><text x="14" y="41" font-size="7.5" fill="#333333">Arguable</text></g></g></svg>
