<svg xmlns="http://www.w3.org/2000/svg" width="460" height="260" viewBox="0 0 460 260" style="font-family: &quot;Helvetica Neue&quot;, Helvetica, Arial, sans-serif;"><rect width="460" height="260" fill="#FFFFFF"></rect><g transform="translate(45,30)"><line x1="0" y1="137.5" x2="395" y2="137.5" stroke="#E0E0E0" stroke-width="0.5"></line><line x1="0" y1="110.00000000000001" x2="395" y2="110.00000000000001" stroke="#E0E0E0" stroke-width="0.5"></line><line x1="0" y1="82.5" x2="395" y2="82.5" stroke="#E0E0E0" stroke-width="0.5"></line><line x1="0" y1="55.00000000000001" x2="395" y2="55.00000000000001" stroke="#E0E0E0" stroke-width="0.5"></line><line x1="0" y1="27.499999999999993" x2="395" y2="27.499999999999993" stroke="#E0E0E0" stroke-width="0.5"></line><line x1="0" y1="0" x2="395" y2="0" stroke="#E0E0E0" stroke-width="0.5"></line><line x1="310.35714285714283" y1="-15" x2="310.35714285714283" y2="170" stroke="#9C9C9C" stroke-width="1" stroke-dasharray="4,3"></line><text x="155.17857142857142" y="-8" text-anchor="middle" font-size="8.5" fill="#666666" font-weight="600">Structural</text><text x="352.67857142857144" y="-8" text-anchor="middle" font-size="8.5" fill="#666666" font-weight="600">Policy</text><g transform="translate(18.809523809523796,0)"><rect x="1.106442577030812" y="137.5" width="12.724089635854343" height="27.5" fill="#4E79A7" rx="2" opacity="0.85"></rect><text x="7.468487394957983" y="134.5" text-anchor="middle" font-size="7.5" fill="#333333" font-weight="600">1</text><rect x="14.936974789915967" y="137.5" width="12.724089635854343" height="27.5" fill="#B07AA1" rx="2" opacity="0.85"></rect><text x="21.29901960784314" y="134.5" text-anchor="middle" font-size="7.5" fill="#333333" font-weight="600">1</text></g><g transform="translate(94.04761904761904,0)"><rect x="28.76750700280112" y="137.5" width="12.724089635854343" height="27.5" fill="#E15759" rx="2" opacity="0.85"></rect><text x="35.129551820728295" y="134.5" text-anchor="middle" font-size="7.5" fill="#333333" font-weight="600">1</text></g><g transform="translate(169.28571428571428,0)"><rect x="28.76750700280112" y="137.5" width="12.724089635854343" height="27.5" fill="#E15759" rx="2" opacity="0.85"></rect><text x="35.129551820728295" y="134.5" text-anchor="middle" font-size="7.5" fill="#333333" font-weight="600">1</text></g><g transform="translate(244.52380952380952,0)"><rect x="14.936974789915967" y="137.5" width="12.724089635854343" height="27.5" fill="#B07AA1" rx="2" opacity="0.85"></rect><text x="21.29901960784314" y="134.5" text-anchor="middle" font-size="7.5" fill="#333333" font-weight="600">1</text></g><g transform="translate(319.76190476190476,0)"><rect x="1.106442577030812" y="82.5" width="12.724089635854343" height="82.5" fill="#4E79A7" rx="2" opacity="0.85"></rect><text x="7.468487394957983" y="79.5" text-anchor="middle" font-size="7.5" fill="#333333" font-weight="600">3</text><rect x="14.936974789915967" y="82.5" width="12.724089635854343" height="82.5" fill="#B07AA1" rx="2" opacity="0.85"></rect><text x="21.29901960784314" y="79.5" text-anchor="middle" font-size="7.5" fill="#333333" font-weight="600">3</text><rect x="28.76750700280112" y="110.00000000000001" width="12.724089635854343" height="54.999999999999986" fill="#E15759" rx="2" opacity="0.85"></rect><text x="35.129551820728295" y="107.00000000000001" text-anchor="middle" font-size="7.5" fill="#333333" font-weight="600">2</text><rect x="42.59803921568628" y="110.00000000000001" width="12.724089635854343" height="54.999999999999986" fill="#59A14F" rx="2" opacity="0.85"></rect><text x="48.96008403361345" y="107.00000000000001" text-anchor="middle" font-size="7.5" fill="#333333" font-weight="600">2</text></g><g transform="translate(0,165)" fill="none" font-size="10" font-family="sans-serif" text-anchor="middle"><path class="domain" stroke="#333333" d="M0.5,0.5H395.5"></path><g class="tick" opacity="1" transform="translate(47.02380952380951,0)"><line stroke="currentColor" y2="0"></line><text fill="#333333" y="3" dy="0.5em" font-size="7.5" transform="rotate(-25)" text-anchor="end" dx="-0.3em">Dead Ends</text></g><g class="tick" opacity="1" transform="translate(122.26190476190476,0)"><line stroke="currentColor" y2="0"></line><text fill="#333333" y="3" dy="0.5em" font-size="7.5" transform="rotate(-25)" text-anchor="end" dx="-0.3em">Unreachable Exit</text></g><g class="tick" opacity="1" transform="translate(197.5,0)"><line stroke="currentColor" y2="0"></line><text fill="#333333" y="3" dy="0.5em" font-size="7.5" transform="rotate(-25)" text-anchor="end" dx="-0.3em">Router Shape</text></g><g class="tick" opacity="1" transform="translate(272.73809523809524,0)"><line stroke="currentColor" y2="0"></line><text fill="#333333" y="3" dy="0.5em" font-size="7.5" transform="rotate(-25)" text-anchor="end" dx="-0.3em">Missing Tool</text></g><g class="tick" opacity="1" transform="translate(347.9761904761905,0)"><line stroke="currentColor" y2="0"></line><text fill="#333333" y="3" dy="0.5em" font-size="7.5" transform="rotate(-25)" text-anchor="end" dx="-0.3em">Missing Human Gate</text></g></g><g fill="none" font-size="10" font-family="sans-serif" text-anchor="end"><path class="domain" stroke="#333333" d="M3,165.5H0.5V0.5H3"></path><g class="tick" opacity="1" transform="translate(0,165.5)"><line stroke="currentColor" x2="3"></line><text fill="#333333" x="-3" dy="0.32em" font-size="9">0</text></g><g class="tick" opacity="1" transform="translate(0,138)"><line stroke="currentColor" x2="3"></line><text fill="#333333" x="-3" dy="0.32em" font-size="9">1</text></g><g class="tick" opacity="1" transform="translate(0,110.50000000000001)"><line stroke="currentColor" x2="3"></line><text fill="#333333" x="-3" dy="0.32em" font-size="9">2</text></g><g class="tick" opacity="1" transform="translate(0,83)"><line stroke="currentColor" x2="3"></line><text fill="#333333" x="-3" dy="0.32em" font-size="9">3</text></g><g class="tick" opacity="1" transform="translate(0,55.50000000000001)"><line stroke="currentColor" x2="3"></line><text fill="#333333" x="-3" dy="0.32em" font-size="9">4</text></g><g class="tick" opacity="1" transform="translate(0,27.999999999999993)"><line stroke="currentColor" x2="3"></line><text fill="#333333" x="-3" dy="0.32em" font-size="9">5</text></g><g class="tick" opacity="1" transform="translate(0,0.5)"><line stroke="currentColor" x2="3"></line><text fill="#333333" x="-3" dy="0.32em" font-size="9">6</text></g></g><text transform="rotate(-90)" x="-82.5" y="-32" text-anchor="middle" font-size="11" fill="#333333">Count</text><g transform="translate(225, 207)"><rect x="0" y="-5" width="10" height="10" rx="2" fill="#4E79A7" opacity="0.85"></rect><text x="14" y="4" font-size="7.5" fill="#333333">LangGraph</text><rect x="72" y="-5" width="10" height="10" rx="2" fill="#B07AA1" opacity="0.85"></rect><text x="86" y="4" font-size="7.5" fill="#333333">CrewAI</text><rect x="144" y="-5" width="10" height="10" rx="2" fill="#E15759" opacity="0.85"></rect><text x="158" y="4" font-size="7.5" fill="#333333">AutoGen</text><rect x="216" y="-5" width="10" height="10" rx="2" fill="#59A14F" opacity="0.85"></rect><text x="230" y="4" font-size="7.5" fill="#333333">ADK</text></g></g></svg>
