<svg xmlns="http://www.w3.org/2000/svg" width="420" height="190" viewBox="0 0 420 190" style="font-family: &quot;Helvetica Neue&quot;, Helvetica, Arial, sans-serif;"><rect width="420" height="190" fill="#FFFFFF"></rect><defs><marker id="arrow" viewBox="0 0 10 10" refX="9" refY="5" markerWidth="5" markerHeight="5" orient="auto-start-reverse"><path d="M 0 0 L 10 5 L 0 10 z" fill="#333333"></path></marker><marker id="arrowRed" viewBox="0 0 10 10" refX="9" refY="5" markerWidth="5" markerHeight="5" orient="auto-start-reverse"><path d="M 0 0 L 10 5 L 0 10 z" fill="#E15759"></path></marker></defs><g><circle cx="90" cy="85" r="30" fill="#59A14F26" stroke="#59A14F" stroke-width="1.8"></circle><circle cx="90" cy="85" r="26" fill="none" stroke="#59A14F" stroke-width="0.8"></circle><text x="90" y="80" text-anchor="middle" font-size="12" font-weight="600" fill="#333333">s₀</text><text x="90" y="96" text-anchor="middle" font-size="9" fill="#666666">ready</text><circle cx="210" cy="85" r="30" fill="#F28E2B26" stroke="#F28E2B" stroke-width="1.8"></circle><text x="210" y="80" text-anchor="middle" font-size="12" font-weight="600" fill="#333333">s₁</text><text x="210" y="96" text-anchor="middle" font-size="9" fill="#666666">waiting</text><circle cx="330" cy="85" r="30" fill="#E1575926" stroke="#E15759" stroke-width="1.8"></circle><text x="330" y="80" text-anchor="middle" font-size="12" font-weight="600" fill="#333333">s₂</text><text x="330" y="96" text-anchor="middle" font-size="9" fill="#666666">violate</text><path d="M 76,55 A 22,22 0 1,1 104,55" fill="none" stroke="#333333" stroke-width="1.2" marker-end="url(#arrow)"></path><text x="90" y="29" text-anchor="middle" font-size="8.5" fill="#666666">¬a ∧ ¬b</text><line x1="120" y1="85" x2="180" y2="85" stroke="#333333" stroke-width="1.2" marker-end="url(#arrow)"></line><text x="150" y="77" text-anchor="middle" font-size="8.5" fill="#333333" font-weight="500">a ∧ ¬b</text><path d="M 190,115 Q 150,143 110,115" fill="none" stroke="#59A14F" stroke-width="1.2" marker-end="url(#arrow)"></path><text x="150" y="156" text-anchor="middle" font-size="8.5" fill="#59A14F" font-weight="500">b</text><line x1="240" y1="85" x2="300" y2="85" stroke="#E15759" stroke-width="1.2" marker-end="url(#arrowRed)"></line><text x="270" y="77" text-anchor="middle" font-size="8.5" fill="#E15759" font-weight="500">a (before b)</text><path d="M 316,55 A 22,22 0 1,1 344,55" fill="none" stroke="#E15759" stroke-width="1.2" marker-end="url(#arrowRed)"></path><text x="330" y="29" text-anchor="middle" font-size="8.5" fill="#E15759">any</text><line x1="30" y1="85" x2="60" y2="85" stroke="#333333" stroke-width="1.2" marker-end="url(#arrow)"></line><text x="210" y="176" text-anchor="middle" font-size="11" fill="#333333">DSL pattern:  </text><text x="210" y="176" text-anchor="middle" font-size="11" fill="#333333" font-family="'SF Mono', 'Menlo', 'Monaco', 'Consolas', monospace">a → F b  (interleaving constraint)</text></g></svg>
