<svg xmlns="http://www.w3.org/2000/svg" width="420" height="300" viewBox="0 0 420 300" style="font-family: &quot;Helvetica Neue&quot;, Helvetica, Arial, sans-serif;"><rect width="420" height="300" fill="#FFFFFF"></rect><g transform="translate(65,20)"><line x1="14.473544754407943" y1="0" x2="14.473544754407943" y2="230" stroke="#E0E0E0" stroke-width="0.5"></line><line x1="59.43248118855801" y1="0" x2="59.43248118855801" y2="230" stroke="#E0E0E0" stroke-width="0.5"></line><line x1="104.39141762270799" y1="0" x2="104.39141762270799" y2="230" stroke="#E0E0E0" stroke-width="0.5"></line><line x1="163.823898811266" y1="0" x2="163.823898811266" y2="230" stroke="#E0E0E0" stroke-width="0.5"></line><line x1="208.782835245416" y1="0" x2="208.782835245416" y2="230" stroke="#E0E0E0" stroke-width="0.5"></line><line x1="253.74177167956606" y1="0" x2="253.74177167956606" y2="230" stroke="#E0E0E0" stroke-width="0.5"></line><line x1="313.17425286812414" y1="0" x2="313.17425286812414" y2="230" stroke="#E0E0E0" stroke-width="0.5"></line><line x1="0" y1="247.30922475067894" x2="325" y2="247.30922475067894" stroke="#E0E0E0" stroke-width="0.5"></line><line x1="0" y1="189.80922475067894" x2="325" y2="189.80922475067894" stroke="#E0E0E0" stroke-width="0.5"></line><line x1="0" y1="132.30922475067894" x2="325" y2="132.30922475067894" stroke="#E0E0E0" stroke-width="0.5"></line><line x1="0" y1="74.80922475067892" x2="325" y2="74.80922475067892" stroke="#E0E0E0" stroke-width="0.5"></line><line x1="0" y1="17.309224750678872" x2="325" y2="17.309224750678872" stroke="#E0E0E0" stroke-width="0.5"></line><g transform="translate(0,230)" fill="none" font-size="10" font-family="sans-serif" text-anchor="middle"><path class="domain" stroke="#333333" d="M0.5,6V0.5H325.5V6"></path><g class="tick" opacity="1" transform="translate(14.973544754407943,0)"><line stroke="#333333" y2="6"></line><text fill="#333333" y="9" dy="0.71em" font-size="9">50</text></g><g class="tick" opacity="1" transform="translate(59.93248118855801,0)"><line stroke="#333333" y2="6"></line><text fill="#333333" y="9" dy="0.71em" font-size="9">100</text></g><g class="tick" opacity="1" transform="translate(104.89141762270799,0)"><line stroke="#333333" y2="6"></line><text fill="#333333" y="9" dy="0.71em" font-size="9">200</text></g><g class="tick" opacity="1" transform="translate(164.323898811266,0)"><line stroke="#333333" y2="6"></line><text fill="#333333" y="9" dy="0.71em" font-size="9">500</text></g><g class="tick" opacity="1" transform="translate(209.282835245416,0)"><line stroke="#333333" y2="6"></line><text fill="#333333" y="9" dy="0.71em" font-size="9">1k</text></g><g class="tick" opacity="1" transform="translate(254.24177167956606,0)"><line stroke="#333333" y2="6"></line><text fill="#333333" y="9" dy="0.71em" font-size="9">2k</text></g><g class="tick" opacity="1" transform="translate(313.67425286812414,0)"><line stroke="#333333" y2="6"></line><text fill="#333333" y="9" dy="0.71em" font-size="9">5k</text></g></g><text x="162.5" y="268" text-anchor="middle" font-size="11" fill="#333333">Number of nodes</text><g fill="none" font-size="10" font-family="sans-serif" text-anchor="end"><path class="domain" stroke="#333333" d="M-6,230.5H0.5V0.5H-6"></path><g class="tick" opacity="1" transform="translate(0,247.80922475067894)"><line stroke="#333333" x2="-6"></line><text fill="#333333" x="-9" dy="0.32em" font-size="9">0.01</text></g><g class="tick" opacity="1" transform="translate(0,190.30922475067894)"><line stroke="#333333" x2="-6"></line><text fill="#333333" x="-9" dy="0.32em" font-size="9">0.1</text></g><g class="tick" opacity="1" transform="translate(0,132.80922475067894)"><line stroke="#333333" x2="-6"></line><text fill="#333333" x="-9" dy="0.32em" font-size="9">1</text></g><g class="tick" opacity="1" transform="translate(0,75.30922475067892)"><line stroke="#333333" x2="-6"></line><text fill="#333333" x="-9" dy="0.32em" font-size="9">10</text></g><g class="tick" opacity="1" transform="translate(0,17.809224750678872)"><line stroke="#333333" x2="-6"></line><text fill="#333333" x="-9" dy="0.32em" font-size="9">100</text></g></g><text transform="rotate(-90)" x="-115" y="-48" text-anchor="middle" font-size="11" fill="#333333">Time (ms)</text><path d="M14.474,212.816L59.432,197.805L104.391,170.359L163.824,127.008L208.783,97.56L253.742,56.011L313.174,16.157" fill="none" stroke="#4E79A7" stroke-width="2"></path><circle cx="14.473544754407943" cy="212.81594810644185" r="3.5" fill="#4E79A7" stroke="#fff" stroke-width="1"></circle><circle cx="59.43248118855801" cy="197.80536906042354" r="3.5" fill="#4E79A7" stroke="#fff" stroke-width="1"></circle><circle cx="104.39141762270799" cy="170.35943401151923" r="3.5" fill="#4E79A7" stroke="#fff" stroke-width="1"></circle><circle cx="163.823898811266" cy="127.00806281058324" r="3.5" fill="#4E79A7" stroke="#fff" stroke-width="1"></circle><circle cx="208.782835245416" cy="97.56001554726151" r="3.5" fill="#4E79A7" stroke="#fff" stroke-width="1"></circle><circle cx="253.74177167956606" cy="56.01136453372776" r="3.5" fill="#4E79A7" stroke="#fff" stroke-width="1"></circle><circle cx="313.17425286812414" cy="16.156614675844683" r="3.5" fill="#4E79A7" stroke="#fff" stroke-width="1"></circle><line x1="0" y1="97.42623038017445" x2="325" y2="97.42623038017445" stroke="#E15759" stroke-width="1.5" stroke-dasharray="6,3"></line><g transform="translate(12, 8)"><line x1="0" y1="0" x2="18" y2="0" stroke="#4E79A7" stroke-width="2"></line><circle cx="9" cy="0" r="3" fill="#4E79A7"></circle><text x="24" y="4" font-size="9" fill="#333333">Structural checks</text><line x1="0" y1="18" x2="18" y2="18" stroke="#E15759" stroke-width="1.5" stroke-dasharray="6,3"></line><text x="24" y="22" font-size="9" fill="#333333">Monitor eval (4.0 ms)</text></g><line x1="0" y1="-40.19077524932113" x2="325" y2="-40.19077524932113" stroke="#9C9C9C" stroke-width="0.8" stroke-dasharray="2,2"></line></g></svg>
